<?xml version="1.0" encoding="UTF-8" standalone="no"?>
<svg id="svg75" height="356.48898" viewBox="0 0 201.75001 267.36674" width="269" xmlns="http://www.w3.org/2000/svg">
   <g id="surface40" transform="translate(-299.125 -166.31663)">
      <path id="path2" d="m300.625 167.81663h198.75v164.99466c0 54.70593-44.66906 99.37208-99.375 99.37208-54.70594 0-99.375-44.66615-99.375-99.37208zm0 0" fill="#1d4278"/>
      <path id="path4" d="m304.62631 171.85301v160.95828c0 52.5226 42.84816 95.37077 95.37369 95.37077 52.52553 0 95.37369-42.84817 95.37369-95.37077v-160.95828zm0 0" fill="#fff"/>
      <path id="path6" d="m426.00702 214.88531c-16.47579 0-31.35281 6.69028-42.15838 17.49585-10.83772 10.83772-17.53092 25.75273-17.53092 42.19345 0 32.88436 26.80787 59.69222 59.6893 59.69222 32.88143 0 59.6893-26.80786 59.6893-59.69222 0-16.44072-6.69319-31.35573-17.49292-42.19345-10.84064-10.80557-25.75566-17.49585-42.19638-17.49585" fill="#1d4278"/>
      <path id="path8" d="m396.61833 322.66043c-2.2944-1.41757-4.5128-2.98126-6.58506-4.72617v-38.44935h-7.34791v31.13652c-2.51067-3.01924-4.72908-6.29277-6.58212-9.82059v-52.45246c1.85304-3.52781 4.07145-6.80134 6.58212-9.82059v34.33699h7.34791v-41.68489c2.07226-1.70984 4.29066-3.27353 6.58506-4.69108zm0 0" fill="#fff"/>
      <path id="path10" d="m418.11548 319.89838c0 1.45263-.14615 3.74702-3.89317 3.20046-.11106 0-.21628-.038-.32735-.038-.54364-.10814-1.09313-.32735-1.63676-.47057-1.92613-.50856-2.54575-1.92904-2.54575-4.14744v-75.44023c0-2.2184.61962-3.63888 2.54575-4.18252.54363-.14614 1.09312-.32735 1.63676-.43841.11107-.0351.21629-.0351.32735-.0731 3.74702-.54363 3.89317 1.74784 3.89317 3.20046zm-.14615-88.86463c-1.38247.18121-2.72988.43842-4.07437.72777-1.59877.36243-3.16246.76285-4.72908 1.23634-5.49192 1.70984-6.03849 5.67607-6.03849 9.45817v76.49536c0 3.7821.54657 7.74833 6.03849 9.45817 1.56662.47349 3.13031.90899 4.72908 1.23634 1.34449.32735 2.6919.54656 4.07437.76285 2.58376.32735 6.72828-.80085 6.72828-6.62013v-86.16981c0-5.81929-4.14452-6.94749-6.72828-6.58506" fill="#fff"/>
      <path id="path12" d="m424.69761 224.63283c-2.25639.038-4.4368.25428-6.58506.58164v-6.51199c2.14826-.28935 4.32867-.47057 6.58506-.50856zm0 0" fill="#fff"/>
      <path id="path14" d="m410.98386 226.9243c-2.50776.83592-4.72616 1.74491-6.58213 2.47268v-6.80134c2.1804-.83592 4.14452-1.70984 6.58213-2.2184zm0 0" fill="#fff"/>
      <path id="path16" d="m469.47482 294.83543c0 2.51067-.21629 4.98335-1.92613 7.38297-.43841.6547-.87391 1.27434-1.30941 1.89105-1.05512 1.38248-2.11025 2.72988-3.27353 4.0013v-67.11027c1.16328 1.30941 2.25348 2.65682 3.27353 4.0393.54365.76285 1.0902 1.5257 1.59877 2.29147 1.42048 2.10733 1.63677 3.3086 1.63677 6.03557zm6.58505-1.01714v-40.59469c0-3.23845-.43841-5.63807-1.96412-8.07567-2.25639-3.60089-4.91321-6.98257-7.85647-10.00181-2.98417-3.05724-6.29277-5.74914-9.85858-8.04061v94.93821c3.56581-2.29148 6.87441-4.98337 9.85858-8.00262 2.36454-2.43761 4.50695-5.05643 6.436-7.85647 2.54868-3.74702 3.38459-6.98547 3.41967-11.02185v-.4735c0-.28936 0-.58163-.0351-.87099" fill="#fff"/>
      <path id="path18" d="m444.59307 316.733c0 3.20045-.68978 4.54494-3.12739 5.34579-.14614.038-.25429.0731-.40042.11106-1.16328.36243-2.32654.68978-3.52781.98206v-97.22967c1.23926.32736 2.36453.61671 3.52781 1.01713.18414.038.36534.11107.51149.18414 1.96412.65471 2.94618 2.6539 3.01632 4.25559zm.11106-95.3737c-1.20127-.40042-2.40253-.80085-3.63887-1.1282-3.27353-.90899-6.65521-1.52862-10.10995-1.85305v112.35805c3.45474-.28935 6.83642-.90899 10.10995-1.81797 1.3474-.36243 2.69481-.80085 3.96623-1.27142 4.80215-1.70984 6.14664-4.25851 6.14664-9.96673v-86.20781c0-4.83723-1.81798-8.4761-6.474-10.11287" fill="#fff"/>
      <path id="path20" d="m426.33437 342.74002c-.98206 1.30941-1.52569 2.94617-2.1804 4.69401l1.27142 1.67184 9.49323-4.03931-3.85517-4.32866zm0 0" fill="#1d4278"/>
      <path id="path22" d="m381.30289 206.00878c.90898 0 1.63676.5115 1.63676 1.27435 0 .72777-.72778 1.23633-1.63676 1.23633-.909 0-1.67185-.50856-1.67185-1.23633 0-.76285.76285-1.27435 1.67185-1.27435m-41.10326 109.96137c2.22132-.6927 4.4748-1.49355 6.65812-2.32947.909-.32735 1.85598-.68978 2.76497-1.05513 1.41756-.58163 2.80003-1.16327 4.18252-1.7829 1.1282-.54657 2.25347-1.05221 3.38167-1.59877 1.16619-.58164 2.32947-1.16619 3.41967-1.7829 1.81798-.98206 3.52782-2.00212 5.1295-3.05725 1.19835-.79792 2.32655-1.59877 3.38168-2.43761-1.30942-2.76204-2.47269-5.63514-3.38168-8.58132-.18121-.58456-.36535-1.20127-.51148-1.7829l-24.98697 9.89365-.038-.0351-14.14924-14.36846v-28.99119l14.47659-10.72959 23.53435 15.02317c.43842-2.2184 1.02005-4.40173 1.67476-6.54999 3.05431-9.82058 8.47318-18.58604 15.5668-25.71473.038-.0351.073-.0731.11107-.11107 2.32654-2.36162 4.87229-4.50988 7.52912-6.47399l5.52699-8.83853.21921-11.27614-17.49584-22.80657-11.74963-.14613-12.80184 12.03898v28.73691l15.16638.65471.40042-21.75143 18.33177.80084 3.78501 11.67657c.28936.79792.54364 1.63676-1.09312 2.14533-1.63677.54656-1.89105-.29228-2.14533-1.0902l-3.09232-9.3851-12.40434-.58163-.3975 21.7865-27.97406-1.05512.038 6.07649 15.45866 8.9116c.76285.3975 1.49063.83592.65471 2.32654-.80085 1.38248-1.49063 1.1282-2.18333.72778-.0731-.038-.10814-.0731-.18122-.0731l-15.31251-8.80053-24.30011 20.36895 3.89316 48.08582 11.42228 16.11336c1.99919-.50857 4.0013-1.0902 6.07356-1.70983.4735-.18122.94406-.32736 1.41756-.47058" fill="#1d4278"/>
      <path id="path24" d="m337.72695 370.82222h5.74621l-7.41805-12.98597c.14322 3.67395.54364 7.63726 1.30941 11.31121.10814.58164.25429 1.1282.36243 1.67476" fill="#1d4278"/>
      <path id="path26" d="m334.01792 369.84016c-1.1282-5.52992-1.52862-11.56841-1.42047-16.58685l-8.98467-5.05644c-1.12528-.61962-2.14534-.94406-2.98126-.94406-.61962-.038-1.12819.10814-1.52862.36243-.43549.25428-.83592.68978-1.16327 1.23634-.58164 1.01714-.90899 2.47269-.94698 4.29358-.10815 4.07146 2.11025 11.23815 4.36665 18.62113.50856 1.70983 1.01713 3.38459 1.1282 3.63887.43549 1.49063 1.0902 3.74411 2.29147 5.81929 1.16327 1.96412 2.8731 3.85516 5.565 4.83722.47349.18414 1.23634.18414 2.18333.0351 1.49062-.2163 3.23553-.76286 4.69108-1.49063h-.038c.80085-.40043 1.45555-.83592 1.89397-1.23635.14321-.10814.25428-.25428.36242-.36242-.10814-.18413-.25428-.32735-.36242-.47349-2.43761-3.16539-4.07437-7.74833-5.05643-12.6937" fill="#1d4278"/>
      <path id="path28" d="m366.82628 357.32476c-2.61882 1.74783-5.05643 3.49274-7.3479 5.27564-1.41755 1.1282-2.76496 2.21841-4.00131 3.34661 1.38249 2.29147 2.7299 4.76415 4.00131 7.23683.43842.87392.83592 1.70984 1.23634 2.58375 1.85598 3.92824 3.41968 7.8214 4.54787 11.27614 1.05513 3.31153 1.56369 6.0005 1.63677 8.69531.073 1.70691-.0351 3.38168-.21921 5.23765 2.03719.90899 4.65601 1.45263 7.27483 1.70691 4.29359.43842 8.44103-.0351 10.14795-1.41755l7.93246-6.43892.0701-52.01404c-9.3471 4.83722-17.93135 9.6043-25.27925 14.51167" fill="#1d4278"/>
      <path id="path30" d="m352.89625 368.31154c-.83884.80085-1.63969 1.63677-2.43761 2.51068l3.85517-.038c-.4735-.83592-.94699-1.67183-1.41756-2.47268" fill="#1d4278"/>
      <path id="path32" d="m361.98906 388.09886c-.14613-.43549-.25428-.83592-.40042-1.27141l-9.13081.79791.54657 2.43762 10.40222 8.83853c.0731-1.05513.11107-2.03719.0731-3.01925-.10815-2.43761-.54656-4.80215-1.49063-7.7834" fill="#1d4278"/>
      <path id="path34" d="m338.70901 374.27697c.10814.32735.21921.6927.36535 1.01713.87099 2.36454 1.96411 4.40173 3.3086 5.85728l.0351-.0351 4.22051 3.56288 1.5637-.14614-2.07226-10.25609zm0 0" fill="#1d4278"/>
      <path id="path36" d="m360.3523 383.48084c-.29228-.6927-.58164-1.38247-.87392-2.11025-.58163-1.34741-1.20127-2.76496-1.85597-4.14745-.4355-.94698-.90899-1.89104-1.41756-2.8731h-6.54706l1.99919 9.89365 7.8214-.68977zm0 0" fill="#1d4278"/>
      <path id="path38" d="m353.80524 323.60741c.18121-.10815.36242-.18122.54364-.25428l-.54364-.909-3.71195-6.36584c-1.0902.4355-2.14533.83592-3.23554 1.23634-.21921.0731-.43842.14614-.6547.25429l.6547 1.16327 3.56289 6.33077c1.16619-.47349 2.29147-.98206 3.3846-1.45555" fill="#1d4278"/>
      <path id="path40" d="m447.4691 361.76448c.14321-.58163.29228-1.16619.4355-1.67183l-.4355-.51149-1.38248-1.70984-1.74783.72778-2.36454.94698-4.98337 2.07226-.36243.14614.36243.40043 4.98337 5.63807 1.67476 1.89105.68978-.40043 1.60169-.87391c.36242-1.99919.98206-4.47188 1.52862-6.65521" fill="#1d4278"/>
      <path id="path42" d="m426.0421 366.23928l7.67818 8.80054 6.83641-3.67395-7.23684-8.18383zm0 0" fill="#1d4278"/>
      <path id="path44" d="m437.8648 343.75715l9.6043-4.14452 9.74752-4.18544.0351.076 7.60219-4.22052-3.92823-4.14744c-4.18252 2.76497-8.65732 5.05644-13.45654 6.80134-1.02007.36535-2.07519.7307-3.13032 1.05513-.76285.21921-1.56369.4355-2.36454.6547-.10815.038-.21629.0731-.32443.0731l-7.67526 3.53073zm0 0" fill="#1d4278"/>
      <path id="path46" d="m443.72207 355.14436l-6.33076-7.23976-9.56338 3.89316 6.40091 7.23684.21921-.0731zm0 0" fill="#1d4278"/>
      <path id="path48" d="m440.52162 382.53386c.47349-.29228 3.05432-1.85597 3.82009-2.36454.14614-.10814.32443-.21921.47057-.29228 0-.10815.0351-.21629.0351-.28935.11107-1.02006.21921-2.03719.33028-3.01925l-2.29147-2.58375-6.76627 3.63888zm0 0" fill="#1d4278"/>
      <path id="path50" d="m342.89152 318.69711c-.87099.29229-1.7829.58164-2.69189.87392-.18121.0731-.36242.10814-.54364.18121l.54364.94407 3.85809 6.80426c.94406-.32735 1.89105-.69271 2.80003-1.05513.10815-.038.25429-.0731.36244-.10814l-.36244-.61964zm0 0" fill="#1d4278"/>
      <path id="path52" d="m454.70594 340.23226l-14.47661 6.25478 6.32786 7.23684 3.89316-1.67184c1.23926-3.92823 2.65682-7.85647 4.25559-11.81978" fill="#1d4278"/>
      <path id="path54" d="m430.99039 376.49536l-7.89155-8.87359-.29228.10814c.25428 1.34449.58164 2.69189.98206 4.07437.65471 2.29147 1.52862 4.69108 2.61883 7.16377l.29227-.18121zm0 0" fill="#1d4278"/>
      <path id="path56" d="m430.92024 360.49015l-6.40385-7.23684-2.14825.80085c-.3975 3.3086-.54364 6.87441-.14322 10.18301zm0 0" fill="#1d4278"/>
      <path id="path58" d="m436.55539 384.75226c.14614-.0731.29227-.14614.43842-.25428.28935-.14614.58163-.29228.87099-.4735l-4.40173-4.98336-5.56208 2.98418c.18122.43549.4355.83592.65179 1.27141.61963 1.16328 1.30941 2.32947 2.07518 3.49274.10814.21921.21629.43841.29228.65471 1.0902-.4355 2.28855-.98206 3.52781-1.6017.68978-.36242 1.37956-.72777 2.10734-1.0902" fill="#1d4278"/>
      <path id="path60" d="m441.97425 389.26213c-.47057-.98206-.94406-1.89105-1.41756-2.80003-.80085.47349-1.59876.90898-2.39962 1.30941-.40041.21921-.76576.43841-1.16326.61963-.87392.43549-1.70984.87099-2.54868 1.23635-1.12528.54363-2.18041.98205-3.12739 1.37955-.0351.51149-.0351 1.05513-.0731 1.60169-.073 1.45555-.14321 3.05725-.0351 4.32866.1812 1.70983.6547 2.47561 1.38247 2.65682.50857.10814 1.12821.073 1.85306-.038.76577-.10814 1.60169-.32735 2.54868-.61671.1812-.038.36242-.11107.54363-.14614 1.34741-.40042 2.83804-.94406 4.43681-1.52862.76576-.28936 1.56661-.61964 2.36453-.94406.11107-.038.21921-.11107.33028-.14614-.11107-.32735-.21921-.65471-.33028-1.02006-.68977-2.03719-1.49062-4.03638-2.36453-5.89236" fill="#1d4278"/>
      <path id="path62" d="m463.47432 381.07831c-.51149-.21629-1.23634-.28935-2.2944-.25428-1.81505.0731-4.21758.61671-6.47398 1.12819-2.80004.65471-5.49193 1.27142-7.23684 1.05513-.10815-.038-.21921-.038-.32735-.0731-.18122-.038-.36243-.073-.54656-.14614-.72778.47349-1.49356.98206-2.25348 1.45555-.25429.14615-.54656.32736-.83885.50857.29229.47349.58456 1.01714.83885 1.56369 1.16327 2.2564 2.25348 4.80215 3.12739 7.42098.14614.36243.25428.72778.36243 1.09313 1.30941-.58456 2.58375-1.1662 3.85808-1.74784 5.31072-2.54575 9.70952-4.94536 10.25609-5.67314.98206-1.30941 1.81798-2.80296 2.14533-4.11237.14614-.61671.21921-1.19834.0731-1.59877-.0731-.2572-.29228-.47349-.68978-.61963" fill="#1d4278"/>
      <path id="path64" d="m426.6968 338.77671l1.85598-.83592.6927-.33028c-.21921.038-.4735.038-.6927.038-.61671.0351-1.23635.0351-1.85598.073h-.68978c-17.46077 0-33.28186-7.16669-44.70413-18.66204-1.63677-1.63676-3.20047-3.38168-4.61802-5.19965-2.58375 2.36454-6.73119 4.98336-10.94879 7.41805-1.09312.61963-2.18332 1.23927-3.27353 1.85598-.61962.32735-1.23634.6547-1.85597.98206-1.1282.58163-2.25639 1.16619-3.41967 1.70983-1.1282.51149-2.25347 1.02006-3.38167 1.52862-.94699.40042-1.92905.83592-2.91111 1.20127-1.34448.54363-2.69189 1.05513-4.03638 1.5637-2.21839.80084-4.43972 1.56369-6.65812 2.25346-.40042.11107-.76285.25429-1.16327.36536l-2.2564 19.49503 10.0398 17.53385.038-.038c2.03719-2.36455 4.36373-4.65602 6.94748-6.90949 1.09021-.90899 2.2184-1.85598 3.38168-2.76496 1.09312-.87392 2.25639-1.70984 3.41966-2.58376 1.41756-1.01712 2.83804-1.99918 4.32866-2.98124.25428-.18122.54657-.36535.80085-.54657 4.76415-3.12739 10.0018-6.2197 15.5668-9.27402 3.74702-2.07519 7.67526-4.10945 11.74963-6.18464l2.47269-1.27433v5.60299c5.27564-1.34449 9.85858-2.32946 14.33045-2.9111 4.91322-.61671 9.63938-.72777 14.84195-.18121zm0 0" fill="#1d4278"/>
      <path id="path66" d="m365.73608 317.20649c3.34661-1.96704 6.36585-3.63888 8.76546-5.96542-1.20126-1.67476-2.76496-4.43973-3.78209-6.21971-1.52862 1.16327-3.20046 2.28855-4.98337 3.38167-1.63676 1.01713-3.3466 1.96412-5.1295 2.90819-.14614.076-.28936.14613-.4355.21921l.4355.76576 3.41967 5.9625c.58164-.36242 1.1282-.72485 1.70983-1.0522" fill="#1d4278"/>
      <path id="path68" d="m357.44119 321.8625c1.09313-.51149 2.14533-1.09313 3.16539-1.63676.14614-.0731.29228-.18414.43549-.25428l-.43549-.76578-3.41967-6.03849-.0731-.10815c-1.0902.50857-2.1804.98206-3.3086 1.49063-.18122.0731-.36535.14614-.50857.21921l.50857.90898 3.38167 5.74622zm0 0" fill="#1d4278"/>
      <path id="path70" d="m352.16847 280.72125l12.07699 6.98548c-.91192-4.22052-1.38541-8.62225-1.38541-13.13212 0-2.8731.21921-5.74621.58456-8.51117l-22.80656-14.54967-11.168 8.25689v25.71767l11.60349 11.92792 19.53304-7.74541.14614-.038-.14614-.0731-10.14794-5.89235c-2.80004-1.59876-1.0902-4.58294 1.70983-2.94618" fill="#1d4278"/>
      <path id="path72" d="m338.78207 329.24548c.4735-.14615.94699-.32735 1.41756-.4735.18414-.0351.36535-.10814.54656-.18121l-.54656-.94698-1.41756-2.50776-2.51068-4.40173c-.50856.14614-1.01713.29228-1.49062.40042v.0351l3.41967 8.22182c.21921-.038.40043-.10814.58163-.14613" fill="#1d4278"/>
   </g>
</svg>